<svg xmlns="http://www.w3.org/2000/svg" viewBox="0 11.649999618530273 394.20001220703125 38.099998474121094" data-asc="0.984" width="394.20001220703125" height="38.099998474121094"><defs/><g><g fill="#ffffff"><g transform="translate(0, 0)"><path d="M11.40 49.75Q8.80 49.75 6.75 49.30Q4.70 48.85 2.25 48.10Q0.75 47.55 0 47.50L0.40 38.45L3.60 38.45L4.45 44.95Q5.30 45.75 7.23 46.38Q9.15 47 11.45 47Q15.25 47 17.23 45.30Q19.20 43.60 19.20 40.60Q19.20 38.65 18.13 37.25Q17.05 35.85 15.28 34.85Q13.50 33.85 10.40 32.50Q7.60 31.25 5.53 29.95Q3.45 28.65 1.93 26.48Q0.40 24.30 0.40 21.25Q0.40 18.50 1.88 16.33Q3.35 14.15 6.13 12.90Q8.90 11.65 12.60 11.65Q14.90 11.65 16.68 12Q18.45 12.35 20.70 12.95Q21.70 13.30 22.40 13.40L22.10 21.80L19.05 21.80L18.05 15.65Q17.55 15.15 15.97 14.70Q14.40 14.25 12.55 14.25Q9.10 14.25 7.33 15.70Q5.55 17.15 5.55 19.90Q5.55 21.90 6.63 23.25Q7.70 24.60 9.30 25.55Q10.90 26.50 14.40 28.15Q17.65 29.70 19.70 30.95Q21.75 32.20 23.23 34.23Q24.70 36.25 24.70 39.05Q24.70 41.70 23.23 44.15Q21.75 46.60 18.73 48.18Q15.70 49.75 11.40 49.75ZM33.15 15.15L29.20 14.55L29.20 12.05L42.80 12.05L42.80 14.55L38.50 15.15L38.50 28.60L56.10 28.60L56.10 15.15L52.05 14.55L52.05 12.05L65.45 12.05L65.45 14.55L61.50 15.15L61.50 46.25L65.45 46.75L65.45 49.20L52 49.20L52 46.75L56.10 46.25L56.10 31.70L38.50 31.70L38.50 46.25L42.85 46.75L42.85 49.20L29.10 49.20L29.10 46.75L33.15 46.25L33.15 15.15ZM82.50 11.75L88 11.75L100.15 46.25L103.25 46.75L103.25 49.20L90.05 49.20L90.05 46.75L94.20 46.25L91.85 38.85L77.25 38.85L74.90 46.25L79.20 46.75L79.20 49.20L67.35 49.20L67.35 46.75L70.45 46.25L82.50 11.75M85.65 19.75L84.40 15.35L83.20 19.85L78.15 35.90L90.90 35.90L85.65 19.75ZM109.95 15.15L105.30 14.55L105.30 12.05L120 12.05L120 14.55L115.35 15.15L115.35 46.25L120 46.80L120 49.20L105.35 49.20L105.35 46.75L109.95 46.25L109.95 15.15ZM151.95 49.20Q151.10 49.20 149.78 47.18Q148.45 45.15 146 40.80Q145.70 40.25 144.32 37.83Q142.95 35.40 141.78 33.65Q140.60 31.90 139.70 30.90L134.65 36.60L134.65 46.25L139.20 46.75L139.20 49.20L125.15 49.20L125.15 46.75L129.30 46.25L129.30 15.15L125.20 14.55L125.20 12.05L138.80 12.05L138.80 14.55L134.65 15.15L134.65 32.65L149.35 15.15L145.15 14.55L145.15 12.05L157.50 12.05L157.50 14.55L153.65 15.15L142.85 27.25Q144.60 28.75 146.57 31.60Q148.55 34.45 151.40 38.95Q153.85 42.80 154.97 44.43Q156.10 46.05 156.75 46.20L159.10 46.75L159.10 49.20L151.95 49.20ZM185.40 49.75Q182.80 49.75 180.75 49.30Q178.70 48.85 176.25 48.10Q174.75 47.55 174 47.50L174.40 38.45L177.60 38.45L178.45 44.95Q179.30 45.75 181.22 46.38Q183.15 47 185.45 47Q189.25 47 191.23 45.30Q193.20 43.60 193.20 40.60Q193.20 38.65 192.13 37.25Q191.05 35.85 189.28 34.85Q187.50 33.85 184.40 32.50Q181.60 31.25 179.53 29.95Q177.45 28.65 175.93 26.48Q174.40 24.30 174.40 21.25Q174.40 18.50 175.88 16.33Q177.35 14.15 180.13 12.90Q182.90 11.65 186.60 11.65Q188.90 11.65 190.68 12Q192.45 12.35 194.70 12.95Q195.70 13.30 196.40 13.40L196.10 21.80L193.05 21.80L192.05 15.65Q191.55 15.15 189.97 14.70Q188.40 14.25 186.55 14.25Q183.10 14.25 181.33 15.70Q179.55 17.15 179.55 19.90Q179.55 21.90 180.63 23.25Q181.70 24.60 183.30 25.55Q184.90 26.50 188.40 28.15Q191.65 29.70 193.70 30.95Q195.75 32.20 197.23 34.23Q198.70 36.25 198.70 39.05Q198.70 41.70 197.23 44.15Q195.75 46.60 192.73 48.18Q189.70 49.75 185.40 49.75ZM219.65 49.60Q212.30 49.60 208.83 45.68Q205.35 41.75 205.35 33.50L205.35 15.15L201.80 14.55L201.80 12.05L215.15 12.05L215.15 14.55L210.90 15.20L210.90 34.05Q210.90 40.85 213.33 43.85Q215.75 46.85 220.30 46.85Q224.85 46.85 227.13 43.65Q229.40 40.45 229.40 34.35L229.40 15.20L225.20 14.55L225.20 12.05L236.85 12.05L236.85 14.55L233.20 15.15L233.20 34.10Q233.20 41.90 229.50 45.75Q225.80 49.60 219.65 49.60ZM244.05 15.15L239.75 14.55L239.75 12.05L266.50 12.05L267 20.55L263.75 20.55L262.25 15L249.40 14.65L249.40 29.15L258.45 29L259.30 24.85L261.95 24.85L261.95 36.55L259.35 36.55L258.45 32.20L249.40 32L249.40 46.25L257.20 46.75L257.20 49.20L240.05 49.20L240.05 46.75L244.05 46.25L244.05 15.15ZM275.90 15.15L271.25 14.55L271.25 12.05L285.95 12.05L285.95 14.55L281.30 15.15L281.30 46.25L285.95 46.80L285.95 49.20L271.30 49.20L271.30 46.75L275.90 46.25L275.90 15.15ZM302.35 34.75L291.10 15.20L288.10 14.55L288.10 12.05L301.15 12.05L301.15 14.55L297.20 15.15L304.25 28.55L305.85 32.35L307.65 28.55L314.30 15.15L310.20 14.55L310.20 12.05L321.60 12.05L321.60 14.55L318.35 15.15L307.90 34.70L307.90 46.20L313.50 46.75L313.50 49.20L296.90 49.20L296.90 46.75L302.35 46.25L302.35 34.75ZM335.40 11.75L340.90 11.75L353.05 46.25L356.15 46.75L356.15 49.20L342.95 49.20L342.95 46.75L347.10 46.25L344.75 38.85L330.15 38.85L327.80 46.25L332.10 46.75L332.10 49.20L320.25 49.20L320.25 46.75L323.35 46.25L335.40 11.75M338.55 19.75L337.30 15.35L336.10 19.85L331.05 35.90L343.80 35.90L338.55 19.75ZM362 15.15L358 14.55L358 12.05L367.30 12.05L383.95 36.45L386.75 41.75L386.75 15.15L382.40 14.55L382.40 12.05L394.20 12.05L394.20 14.55L390.20 15.15L390.20 49.20L386.25 49.20L369.25 24.25L365.40 17.65L365.40 46.25L370.15 46.75L370.15 49.20L358 49.20L358 46.75L362 46.20L362 15.15Z"/></g></g></g></svg>